<svg xmlns="http://www.w3.org/2000/svg" version="1.1" xmlns:xlink="http://www.w3.org/1999/xlink" xmlns:svgjs="http://svgjs.dev/svgjs" width="100%" height="100%" viewBox="0 0 1000 600"><rect width="1000" height="600" x="0" y="0" fill="#087f5b"/><g><circle r="166.66666666666666" cx="317.3020579020182" cy="339.52428498276447" fill="#099268" transform="matrix(0.8298182436027077,0,0,0.829818243602708,0,18.256541390581347)"/><path d="M301.8480826480136 414.5243052242367L207.38291180548978 414.5243052242367L207.38291180548978 399.28798734641026L249.92022375827864 354.7606257116196Q259.09310901125576 345.1213225644233 265.80952668801194 337.4098800466663Q272.52594436476807 329.66734300262794 276.10181488711504 322.17356216883985Q279.6776854094621 314.67978133505176 279.6776854094621 306.15988113398146L279.6776854094621 306.15988113398146Q279.6776854094621 291.60764283434315 271.7485812077361 286.13500620883815Q263.7883824797288 280.6312750570519 247.89907954999555 280.6312750570519L247.89907954999555 280.6312750570519Q242.08440313539649 280.6312750570519 234.90156756442119 281.4397327403651Q227.74982651972715 282.2170958973971 221.15778694809612 283.21212073839797Q214.53465285018382 284.2382401056802 209.83937938171078 285.35764305180624L209.83937938171078 285.35764305180624L208.5023147516158 270.5566485419177Q213.19758822008885 269.2195839118227 220.13166758081394 267.88251928172775Q227.06574694153903 266.5454546516328 235.24360735351524 265.5193352843506Q243.42146776549146 264.5243104433497 251.2572883883736 264.5243104433497L251.2572883883736 264.5243104433497Q274.76475025702007 264.5243104433497 286.5184811913433 273.91485738029576Q298.27221212566656 283.33649884352315 298.27221212566656 304.13873692569837L298.27221212566656 304.13873692569837Q298.27221212566656 315.11510470298964 294.7896251821634 323.85266658802885Q291.33813276494146 332.59022847306807 284.4973369830602 340.98575056901325Q277.68763572746025 349.38127266495843 267.14659131810686 359.6735608640616L267.14659131810686 359.6735608640616L228.43390609791527 398.8526639784724L301.8480826480136 398.8526639784724L301.8480826480136 414.5243052242367ZM427.22121261412815 414.5243052242367L332.7560417716043 414.5243052242367L332.7560417716043 399.28798734641026L375.2933537243931 354.7606257116196Q384.46623897737027 345.1213225644233 391.1826566541264 337.4098800466663Q397.8990743308825 329.66734300262794 401.47494485322954 322.17356216883985Q405.0508153755766 314.67978133505176 405.0508153755766 306.15988113398146L405.0508153755766 306.15988113398146Q405.0508153755766 291.60764283434315 397.1217111738506 286.13500620883815Q389.1615124458433 280.6312750570519 373.2722095161101 280.6312750570519L373.2722095161101 280.6312750570519Q367.457533101511 280.6312750570519 360.2746975305357 281.4397327403651Q353.12295648584166 282.2170958973971 346.5309169142106 283.21212073839797Q339.9077828162983 284.2382401056802 335.2125093478253 285.35764305180624L335.2125093478253 285.35764305180624L333.8754447177303 270.5566485419177Q338.57071818620335 269.2195839118227 345.50479754692844 267.88251928172775Q352.4388769076535 266.5454546516328 360.61673731962975 265.5193352843506Q368.79459773160596 264.5243104433497 376.63041835448814 264.5243104433497L376.63041835448814 264.5243104433497Q400.1378802231346 264.5243104433497 411.8916111574579 273.91485738029576Q423.6453420917811 283.33649884352315 423.6453420917811 304.13873692569837L423.6453420917811 304.13873692569837Q423.6453420917811 315.11510470298964 420.16275514827794 323.85266658802885Q416.7112627310561 332.59022847306807 409.8704669491748 340.98575056901325Q403.0607656935748 349.38127266495843 392.5197212842214 359.6735608640616L392.5197212842214 359.6735608640616L353.8070360640298 398.8526639784724L427.22121261412815 398.8526639784724L427.22121261412815 414.5243052242367Z " fill="#8bd8bd" transform="matrix(0.8298182436027077,0,0,0.829818243602708,0,18.256541390581347)"/><path d="M584.6688970608927 414.52430903893395L567.3020628900384 414.52430903893395L567.3020628900384 264.52430903893395L598.7794498247117 264.52430903893395L640.2367362568725 390.4338567776274L681.9050779654153 264.52430903893395L713.3824649000886 264.52430903893395L713.3824649000886 414.52430903893395L696.0156307292344 414.52430903893395L696.0156307292344 282.9765703454666L692.7593493221992 282.9765703454666L650.0055804779781 409.097173360542L630.6789473121489 409.097173360542L587.9251784679279 282.9765703454666L584.6688970608927 282.9765703454666L584.6688970608927 414.52430903893395ZM811.9452789704404 362.63486180275305L746.1864850005911 362.63486180275305L746.1864850005911 347.01677135049175L811.9452789704404 347.01677135049175L811.9452789704404 362.63486180275305ZM932.8799523372746 414.52430903893395L841.251811633757 414.52430903893395L841.251811633757 399.75043969220025L882.4980427895359 356.57456029521535Q891.3925151513449 347.22782662687365 897.9050779654153 339.7504396922003Q904.4176407794856 332.24290200375805 907.9151282166716 324.9765703454666Q911.3824649000886 317.71023868717515 911.3824649000886 309.44893215451185L911.3824649000886 309.44893215451185Q911.3824649000886 295.33837939069275 903.6638719352645 290.0318467273762Q895.9754297242092 284.6951633102907 880.538243794561 284.6951633102907L880.538243794561 284.6951633102907Q874.9000528397871 284.6951633102907 867.965379472953 285.4790829082807Q861.00055535235 286.2328517525018 854.608595553355 287.1976758731048Q848.21663575436 288.1926507474767 843.6337211814957 289.27807788315505L843.6337211814957 289.27807788315505L842.3372387694354 274.9263190891852Q846.8900025885308 273.6298366771249 853.643771432752 272.3333542650646Q860.3673895232042 271.0368718530043 868.2970377644102 270.04189697863245Q876.1965352518474 269.0770728580294 883.7945252015962 269.0770728580294L883.7945252015962 269.0770728580294Q906.5884950508424 269.0770728580294 917.9854799754655 278.1826004962204Q929.3824649000886 287.3182788881802 929.3824649000886 307.48913315953695L929.3824649000886 307.48913315953695Q929.3824649000886 318.13234923993895 926.0357312317469 326.6047110489842Q922.6588468096364 335.07707285802945 916.0558317342595 343.21777637561735Q909.4226659051138 351.3584798932053 899.2317111312444 361.33837939069275L899.2317111312444 361.33837939069275L861.6638719352646 399.32832913943645L932.8799523372746 399.32832913943645L932.8799523372746 414.52430903893395ZM1054.4477915332545 414.52430903893395L962.8196508297368 414.52430903893395L962.8196508297368 399.75043969220025L1004.0658819855158 356.57456029521535Q1012.9603543473249 347.22782662687365 1019.4729171613952 339.7504396922003Q1025.9854799754655 332.24290200375805 1029.4829674126513 324.9765703454666Q1032.9503040960685 317.71023868717515 1032.9503040960685 309.44893215451185L1032.9503040960685 309.44893215451185Q1032.9503040960685 295.33837939069275 1025.2317111312445 290.0318467273762Q1017.5432689201892 284.6951633102907 1002.1060829905408 284.6951633102907L1002.1060829905408 284.6951633102907Q996.467892035767 284.6951633102907 989.5332186689328 285.4790829082807Q982.5683945483298 286.2328517525018 976.1764347493348 287.1976758731048Q969.7844749503398 288.1926507474767 965.2015603774756 289.27807788315505L965.2015603774756 289.27807788315505L963.9050779654153 274.9263190891852Q968.4578417845107 273.6298366771249 975.2116106287319 272.3333542650646Q981.9352287191841 271.0368718530043 989.8648769603901 270.04189697863245Q997.7643744478274 269.0770728580294 1005.3623643975761 269.0770728580294L1005.3623643975761 269.0770728580294Q1028.1563342468223 269.0770728580294 1039.5533191714453 278.1826004962204Q1050.9503040960685 287.3182788881802 1050.9503040960685 307.48913315953695L1050.9503040960685 307.48913315953695Q1050.9503040960685 318.13234923993895 1047.603570427727 326.6047110489842Q1044.226686005616 335.07707285802945 1037.6236709302393 343.21777637561735Q1030.9905051010937 351.3584798932053 1020.7995503272243 361.33837939069275L1020.7995503272243 361.33837939069275L983.2317111312444 399.32832913943645L1054.4477915332545 399.32832913943645L1054.4477915332545 414.52430903893395Z " fill="#96f2d7" transform="matrix(0.8298182436027077,0,0,0.829818243602708,0,18.256541390581347)"/></g></svg>